<?xml version="1.0" encoding="iso-8859-1"?>
<!-- Generator: Adobe Illustrator 25.4.1, SVG Export Plug-In . SVG Version: 6.00 Build 0)  -->
<svg version="1.1" id="Layer_1" xmlns="http://www.w3.org/2000/svg" xmlns:xlink="http://www.w3.org/1999/xlink" x="0px" y="0px"
	 viewBox="0 0 7500 5000" style="enable-background:new 0 0 7500 5000;" xml:space="preserve">
<rect style="fill:none;" width="7500" height="5000"/>
<g>
	<g>
		<g>
			<path d="M2153.288,1612.794c-2.699,3.751-3.823,9.519-2.5,12.817s28.436,49.126,60.253,101.839
				c56.419,93.474,78.424,126.829,104.297,158.092c13.694,16.547,15.78,17.554,22.339,10.785c7.287-7.519,5.03-12.923-21.34-51.083
				c-14.024-20.295-44.135-67.822-66.912-105.617C2171.125,1609.703,2163.113,1599.132,2153.288,1612.794z"/>
		</g>
		<g>
			<path d="M3541.256,1850.339c-8.262,6.881-36.957,28.104-63.766,47.16c-49.813,35.406-124.853,95.852-140.165,112.907
				c-4.938,5.499-7.576,11.866-6.267,15.124l0.001,0.001c3.384,8.423,8.816,6.839,25.396-7.404
				c40.997-35.215,80.342-66.104,131.707-103.401c62.732-45.551,79.918-60.741,79.766-70.5
				C3567.771,1834.209,3557.903,1836.471,3541.256,1850.339z"/>
		</g>
		<g>
			<path d="M2043.239,3715.227c4.823-6.602,47.447-77.823,94.718-158.27c91.868-156.345,96.476-166.911,72.62-166.538
				c-10.152,0.159-15.027,7.704-102.468,158.591c-50.494,87.133-91.774,160.969-91.732,164.081c0.042,3.112,2.078,7.598,4.525,9.969
				v0.001C2028.095,3730.033,2033.91,3727.993,2043.239,3715.227z"/>
		</g>
		<g>
			<path d="M7253.81,2836.193c-109.241-90.174-266.8-149.315-470.275-176.521c-94.502-12.635-137.247-14.825-263.008-13.182
				c-164.023,2.081-255.339,11.284-472.476,47.622c-151.323,25.323-170.14,27.738-221.407,28.476
				c-47.867,0.684-69.678-4.624-76.792-18.691c-16.094-31.822-3.203-73.692,41.525-134.871
				c26.071-35.659,29.68-47.023,18.695-58.869c-10.722-11.562-23.769-7.856-52.263,14.846
				c-16.875,13.438-25.555,18.561-23.708,13.978c6.264-15.544,6.138-45.602-0.259-61.76c-7.73-19.522-33.532-43.531-52.013-48.392
				c-29.319-7.714-75.069,10.776-149.268,60.325c-127.426,85.094-174.654,148.351-148.042,198.287
				c12.701,23.832,34.518,33.634,77.856,34.974c60.717,1.88,130.714-23.569,209.321-76.101
				c16.903-11.296,31.077-20.199,31.497-19.793c0.42,0.411-0.844,8.113-2.809,17.119c-9.685,44.38,5.525,89.847,35.695,106.702
				c43.088,24.071,98.354,21.495,296.353-13.813c54.095-9.647,122.132-21.131,151.193-25.521
				c323.217-48.826,598.093-36.722,819.952,36.106c155.276,50.973,282.326,144.633,300.523,221.543
				c4.035,17.054,3.74,21.017-2.681,36.021c-26.751,62.52-180.423,100.32-479.397,117.918
				c-114.823,6.758-527.902,10.967-815.824,8.313c-520.074-4.795-894.352,0.205-1142.475,15.264
				c-29.092,1.763-53.377,2.926-53.964,2.591c-0.587-0.34,16.148-25.266,37.19-55.39c38.817-55.575,77.34-105.971,176.738-231.208
				c69.179-87.163,106.161-137.363,166.144-225.525c26.046-38.284,55.326-79.561,65.066-91.727
				c9.739-12.166,29.249-37.54,43.356-56.388c21.902-29.262,31.502-38.385,65.723-62.452
				c80.359-56.516,170.019-127.087,246.188-193.773c19.889-17.413,38.584-33.597,41.545-35.964
				c5.761-4.607,77.777-16.603,163.909-27.303c70.257-8.728,311.015-15.094,375.432-9.927
				c87.843,7.047,149.995,23.906,171.859,46.62l8.323,8.647l-17.99,28.302c-21.341,33.577-23.342,48.762-7.978,60.548
				c11.493,8.816,26.893,9.37,41.671,1.499c12.717-6.772,37.915-38.326,47.033-58.898c28.763-64.881-40.699-117.968-171.304-130.927
				c-107.536-10.669-369.096,5.757-547.681,34.396c-14.43,2.313-13.873,1.61,56.31-71.091
				c96.016-99.46,124.086-133.147,166.979-200.38c52.717-82.634,62.284-144.289,25.27-162.864
				c-14.458-7.255-25.278-6.672-49.31,2.654c-62.842,24.387-191.245,156.299-404.947,416.017
				c-30.259,36.775-57.44,67.827-60.401,69.005c-10.076,4.008-159.855,29.489-201.204,34.229
				c-60.302,6.913-179.129,4.547-223.487-4.451c-43.062-8.736-84.766-28.594-100.663-47.937
				c-11.575-14.083-13.123-23.604-9.562-58.792c1.62-16.006-9.452-16.609-18.963-1.031c-5.879,9.626-7.113,16.635-5.849,33.195
				c3.923,51.351,56.351,85.603,156.076,101.972c27.284,4.479,56.632,5.684,121.729,4.892c84.75-0.997,101.052-2.549,199.757-19.029
				c26.612-4.443,50.002-7.557,51.977-6.931c1.975,0.632-30.812,44.334-72.859,97.117c-42.047,52.782-81.303,102.068-87.236,109.524
				c-8.962,11.262-41.786,29.615-193.992,108.471c-100.762,52.204-208.867,109.432-240.232,127.175
				c-31.365,17.742-57.75,32.268-58.631,32.278c-2.756,0.033-20.881-55.174-26.87-81.845c-3.145-13.999-5.889-37.221-6.098-51.602
				l-0.375-26.147l33.95-29.932c60.049-52.942,81.516-81.536,81.192-108.146c-0.344-28.295-25.532-41.495-65.834-34.5
				c-29.229,5.072-43.021,11.103-56.214,24.58c-18.552,18.952-25.623,40.046-39.507,117.87
				c-2.619,14.681-97.961,87.172-150.528,114.45c-38.087,19.765-86.313,35.257-118.786,38.158
				c-27.624,2.468-29.282,2.175-38.458-6.78c-7.705-7.52-9.631-12.861-9.806-27.191c-0.35-28.771,12.329-72.522,35.115-121.165
				c11.699-24.975,21.234-48.375,21.19-51.999c-0.044-3.625-4.395-11.594-9.667-17.708c-14.461-16.767-28.579-15.102-54.027,6.374
				c-11.208,9.458-20.814,16.555-21.351,15.775c-0.536-0.782-7.209-10.794-14.828-22.252
				c-33.156-49.855-87.825-63.923-165.536-42.594c-33.386,9.163-105.353,47.281-139.651,73.968
				c-38.733,30.138-95.876,90.296-116.037,122.161c-12.967,20.496-22.771,29.862-61.408,58.662
				c-141.49,105.467-276.818,175.191-351.837,181.274c-27.249,2.209-28.343,1.977-38.807-8.236
				c-13.605-13.28-17.294-33.974-12.591-70.635c9.005-70.185,36.662-148.619,91.109-258.379l34.616-69.783l14.558,0.438
				c72.112,2.192,176.373,1.324,181.552-1.511c9.826-5.379,7.668-17.404-3.916-21.816c-5.547-2.114-13.384-5.533-17.415-7.601
				c-4.048-2.076-39.617-4.143-79.458-4.617c-39.671-0.473-72.143-1.969-72.159-3.328c-0.055-4.514,69.588-122.267,119.728-202.44
				c80.823-129.233,277.381-421.779,377.145-561.328c81.19-113.567,87.862-127.026,72.434-146.155
				c-6.949-8.619-10.403-9.935-23.144-8.844c-13.877,1.19-16.507,3.311-35.847,28.918
				c-140.197,185.624-293.127,403.695-413.459,589.577c-33.566,51.85-62.673,97.154-64.681,100.671
				c-2.76,4.835-27.622,11.85-101.87,28.74c-54.02,12.29-120.323,28.358-147.34,35.708
				c-130.498,35.503-347.717,79.129-355.615,71.421c-4.044-3.948,8.88-16.098,36.279-34.104
				c14.138-9.292,41.188-27.134,60.11-39.648c38.306-25.334,152.735-90.792,313.602-179.391
				c33.907-18.675,62.834-35.704,64.283-37.845c4.594-6.784,2.804-16.67-3.005-16.6c-3.078,0.037-13.296,4.085-22.707,8.993
				c-9.411,4.909-51.704,24.234-93.984,42.944c-77.986,34.513-171.617,79.8-297.678,143.978
				c-38.295,19.496-74.647,37.265-80.78,39.488c-10.762,3.899-11.006,3.76-6.977-3.994c2.296-4.42,20.622-25.509,40.725-46.864
				s47.364-52.313,60.581-68.795c13.217-16.482,32.876-38.077,43.687-47.99c10.811-9.912,54.279-51.155,96.595-91.652
				c131.796-126.125,218.121-206.801,297.175-277.724c15.875-14.242,45.204-40.884,65.175-59.203s42.311-38.76,49.645-45.424
				c14.237-12.937,14.975-14.617,9.871-22.466c-7.261-11.164-25.341-0.512-76.618,45.149
				c-28.082,25.006-64.317,56.871-80.522,70.814s-49.786,42.856-74.625,64.255c-57.576,49.604-179.435,162.806-240.057,223.005
				c-43.246,42.942-94.658,88.581-159.396,141.492c-14.182,11.592-35.319,29.645-46.97,40.119
				c-22.226,19.98-40.34,31.527-43.941,28.011c-8.214-8.016,57.228-162.544,101.898-240.614
				c76.082-132.968,150.17-274.567,150.022-286.727c-0.119-9.807-11.552-9.084-20.799,1.314
				c-4.062,4.567-22.337,33.128-40.613,63.468c-18.275,30.34-50.397,81.658-71.38,114.039s-57.217,91.141-80.518,130.578
				c-59.643,100.941-94.634,156.53-104.522,166.049l-8.497,8.181l-0.099-8.147c-0.136-11.169,52.249-226.391,73.183-300.677
				c9.369-33.243,24.262-82.709,33.096-109.922c23.604-72.713,46.598-156.032,51.406-186.274
				c4.638-29.176,2.08-38.033-11.525-39.889c-9.917-1.353-12.024,3.962-23.738,59.862c-5.062,24.157-29.74,106.596-54.84,183.2
				c-25.101,76.604-60.695,186.284-79.1,243.732c-43.632,136.19-50.497,148.889-66.284,122.598
				c-14.505-24.156-26.102-117.289-35.341-283.817c-8.657-156.028-14.97-219.391-22.632-227.113
				c-2.533-2.547-7.251-3.588-10.485-2.303c-8.073,3.212-8.434,38.383-3.153,307.434c2.375,120.945,3.192,219.914,1.817,219.931
				c-4.408,0.053-16.951-32.137-36.66-94.092c-10.564-33.211-31.802-98.013-47.197-144.006
				c-22.903-68.431-52.34-172.238-98.009-345.622c-3.791-14.394-6.511-18.418-13.017-19.263c-4.907-0.638-9.077,1.236-10.339,4.649
				c-2.712,7.334,6.937,49.175,25.675,111.329c8.142,27.007,22.76,85.149,32.485,129.204
				c9.726,44.054,25.193,107.936,34.373,141.958c35.62,132.018,53.534,240.083,41.106,247.973
				c-6.435,4.085-14.271-6.806-62.646-87.082c-25.225-41.859-101.558-167.427-169.63-279.039
				c-68.072-111.612-129.308-212.721-136.08-224.686c-15.395-27.199-21.637-34.419-29.675-34.321
				c-11.673,0.142-12.236,16.309-1.018,29.218c2.59,2.981,31.144,55.202,63.454,116.05
				c57.96,109.155,88.688,163.013,137.555,241.097c13.718,21.92,44.134,77.975,67.592,124.57
				c41.948,83.32,62.057,132.057,56.737,137.508c-4.479,4.589-38.903-15.094-72.443-41.42
				c-17.379-13.641-55.569-47.119-84.866-74.394c-29.297-27.276-74.581-68.384-100.632-91.352
				c-26.051-22.968-59.844-52.785-75.095-66.263c-28.131-24.857-38.892-28.623-40.772-14.265
				c-0.689,5.271,2.584,10.298,10.104,15.516c6.118,4.244,31.522,29.985,56.454,57.203s62.871,67.343,84.312,89.169
				c47.28,48.131,159.615,169.627,164.199,177.589c2.508,4.355,2.084,5.017-1.76,2.751c-2.784-1.642-64.653-39.986-137.486-85.209
				c-72.833-45.223-149.804-92.967-171.047-106.099c-21.242-13.13-90.769-56.625-154.504-96.653
				c-155.957-97.946-150.369-94.74-163.291-93.601c-14.956,1.322-17.464,4.755-12.825,17.56c3.08,8.501,13.134,16.142,46.978,35.705
				c23.683,13.688,57.303,34.843,74.712,47.01c17.408,12.166,45.583,30.699,62.612,41.184
				c17.028,10.485,51.663,32.902,76.967,49.812s74.147,48.212,108.541,69.557c118.447,73.513,180.327,114.708,199.665,132.922
				c20.876,19.663,24.012,26.918,11.7,27.068c-12.071,0.147-98.743-17.18-111.391-22.267c-6.202-2.497-26.803-7.969-45.781-12.161
				c-18.978-4.193-57.812-14.533-86.298-22.979c-28.485-8.445-88.618-22.435-133.627-31.09
				c-45.01-8.654-118.902-24.189-164.205-34.522c-45.302-10.333-100.165-21.322-121.917-24.42
				c-46.944-6.688-51.65-4.785-40.232,16.273c7.014,12.933,8.883,13.924,36.502,19.336c16.01,3.138,47.248,11.291,69.418,18.12
				c22.169,6.829,51.018,14.97,64.106,18.089c25.158,5.997,78.155,21.071,153.86,43.762c25.19,7.549,67.214,18.423,93.386,24.16
				c103.989,22.8,238.316,64.812,255.366,79.87c20.072,17.722,4.742,19.951-142.798,20.753
				c-133.417,0.723-135.429,1.016-290.275,42.369c-134.041,35.797-301.28,96.287-417.903,151.157
				c-15.326,7.211-28.267,12.68-28.759,12.161c-3.111-3.304-82.858-121.966-115.117-171.293
				c-182.43-278.947-247.857-447.084-250.485-643.698c-1.701-127.236,20.687-225.266,77.96-341.371
				c26.592-53.91,58.172-103.948,97.638-154.704c36.71-47.212,150.748-163.696,206.357-210.78
				c178.538-151.172,368.641-264.119,544.62-323.581c113.376-38.31,260.271-55.689,283.02-33.486
				c9.164,8.945,17.677,9.551,25.982,1.85c5.386-4.995,9.806-4.669,42.116,3.111c53.705,12.929,93.381,33.238,125.118,64.043
				c34.018,33.02,43.268,54.496,43.878,101.891c0.314,24.368-1.572,38.89-7.307,56.241
				c-32.25,97.575-126.324,223.308-298.033,398.331c-234.041,238.557-551.481,490.756-735.429,584.285
				c-25.898,13.167-51.714,23.997-57.367,24.066c-11.24,0.137-22.273,12.26-18.892,20.76c3.054,7.678,17.517,9.672,32.952,4.54
				c27.496-9.141,101.961-47.993,149.834-78.175c127.667-80.492,241.389-166.726,410.546-311.319
				c261.174-223.246,467.26-451.724,531.369-589.104c46.008-98.592,35.659-180.916-30.447-242.199
				c-31.865-29.54-64.565-48.069-111.929-63.422c-51.529-16.702-98.703-23.132-162.832-22.215
				c-102.146,1.471-197.494,23.553-320.357,74.191c-248.41,102.384-532.288,316.046-690.252,519.522
				c-60.465,77.885-117.397,183.978-144.935,270.087c-46.214,144.503-47.932,300.612-5.064,460.046
				c36.49,135.711,112.579,282.838,273.314,528.482c32.161,49.15,58.492,90.834,58.514,92.63
				c0.022,1.796-28.879,17.469-64.223,34.828c-285.459,140.203-647.686,365.516-857.959,533.669
				c-99.5,79.569-225.457,201.494-277.308,268.433c-132.61,171.195-161.737,297.076-92.205,398.506
				c51.982,75.831,164.614,124.391,331.905,143.095c46.326,5.149,184.172,3.491,239.084-2.907
				c430.564-50.164,899.09-307.857,1022.64-562.46c9.87-20.34,21.921-53.061,27.011-73.342c8.015-31.937,9.11-43.854,8.579-93.197
				c-0.732-67.688-11.109-121.169-38.661-199.255c-9.481-26.869-16.682-49.354-16.002-49.955
				c1.663-1.482,83.063-50.288,128.089-76.8c34.439-20.279,67.747-41.185,166.659-104.602
				c71.601-45.907,115.354-72.789,200.743-123.333c44.653-26.433,87.376-52.072,94.942-56.978
				c30.996-20.096,113.223-54.248,118.417-49.179c5.13,5.005-5.103,27.001-25.314,54.412
				c-20.398,27.665-145.996,153.812-214.138,215.075c-13.321,11.979-38.02,35.299-54.886,51.824
				c-16.866,16.527-50.84,47.521-75.497,68.878c-24.657,21.356-54.723,48.111-66.814,59.454
				c-12.091,11.342-31.809,28.249-43.819,37.57c-37.97,29.469-102.785,92.265-102.697,99.498c0.046,3.747,2.412,6.785,5.26,6.75
				c2.847-0.035,7.782,0.901,10.967,2.078c3.905,1.445,14.313-6.188,31.958-23.435c14.391-14.068,33.49-31.22,42.442-38.118
				c8.951-6.898,24.396-20.218,34.321-29.604c9.925-9.386,42.289-36.977,71.918-61.316c29.63-24.338,68.062-55.923,85.406-70.189
				c17.343-14.265,52.903-45.91,79.023-70.323c80.699-75.423,105.015-97.138,158.853-141.865
				c79.128-65.736,121.354-99.108,117.884-93.167c-1.722,2.95-34.844,51.748-73.604,108.439
				c-82.319,120.404-204.819,302.744-374.631,557.633c-228.535,343.031-332.845,498.728-351.983,525.378
				c-10.976,15.284-19.101,30.519-19.038,35.696c0.102,8.396,9.005,16.482,18.024,16.373c6.489-0.079,20.811-16.201,27.578-31.043
				c3.6-7.899,18.025-26.967,32.056-42.373c14.03-15.407,35.088-40.451,46.796-55.651c26.985-35.039,70.458-88.454,91.8-112.795
				c9.06-10.332,44.807-55.945,79.438-101.36c57.201-75.014,93.514-129.332,208.917-312.514c21.033-33.386,49.113-76.541,62.4-95.9
				c13.287-19.359,35.373-51.662,49.08-71.785c13.707-20.123,33.981-49.019,45.052-64.211c11.071-15.195,36.036-51.639,55.477-80.99
				c19.441-29.351,49.336-72.426,66.432-95.725c17.096-23.298,39.276-54.782,49.288-69.962
				c10.013-15.182,24.893-34.208,33.067-42.282l14.863-14.681l-2.338,12.703c-1.285,6.987-7.568,33.302-13.959,58.477
				c-6.392,25.177-24.781,99.326-40.864,164.778c-32.539,132.424-67.167,260.581-82.564,305.572
				c-11.94,34.89-42.821,147.568-49.764,181.578c-7.538,36.922-7.083,43.452,3.34,48.048c9.714,4.284,20.143-0.897,20.033-9.952
				c-0.03-2.494,5.637-21.665,12.595-42.603c64.396-193.795,101.693-315.699,124.877-408.151
				c14.502-57.834,31.938-118.466,56.226-195.531c15.662-49.695,23.94-70.355,31.6-78.874c9.814-10.914,10.663-11.186,15.58-4.976
				c13.974,17.643,25.21,99.25,26.429,192.01c0.41,31.116,2.57,79.553,4.799,107.636c4.667,58.8,12.302,214.878,17.495,357.671
				l3.588,98.642l-57.684,18.476c-177.753,56.931-366.193,130.817-511.879,200.707
				c-210.927,101.188-347.624,210.972-379.424,304.724c-23.949,70.603-4.849,138.533,54.513,193.882
				c43.851,40.886,94.798,66.188,170.547,84.697c43.618,10.658,76.434,15.949,127.104,20.497l-0.009,0.05
				c50.699,4.552,198.24-1.132,275.496-10.61c93.452-11.466,245.463-38.407,255.748-45.326c11.799-7.938,11.309-28.69-0.861-36.456
				c-8.195-5.227-13.882-4.762-75.676,6.197c-374.408,66.398-615.201,45.212-720.152-63.366
				c-31.235-32.313-41.562-56.429-39.525-92.304c2.004-35.298,17.023-64.641,53.04-103.629
				c81.965-88.728,241.274-180.822,488.885-282.62c99.061-40.726,338.161-127.301,352.041-127.47
				c2.749-0.033,4.598,22.012,5.858,69.809c1.624,61.614,2.593,70.321,8.209,73.765c4.86,2.981,7.689,2.552,11.946-1.81
				c4.666-4.781,5.43-17.692,4.651-78.918l-0.924-73.201l46.306-14.233c236.317-72.636,539.011-147.304,799.001-197.1l39.297-7.526
				l32.208,33.553c46.791,48.746,83.004,77.271,97.87,77.09c11.964-0.146,20.591-5.611,20.501-12.986
				c-0.026-2.185-22.332-26.638-49.567-54.34c-27.235-27.702-49.111-50.814-48.614-51.367c3.349-3.712,217.43-38.568,355.389-57.865
				c176.589-24.7,373.755-46.712,532.275-59.423c31.092-2.493,65.924-5.545,77.405-6.792l20.874-2.258l-10.433,25.369
				c-5.738,13.953-11.411,32.001-12.606,40.106c-4.548,30.839,15.206,58.563,43.649,61.267c23.012,2.187,43.436-10.5,72.742-45.185
				c20.909-24.746,24.269-30.706,24.122-42.778c-0.116-9.538-2.646-16.275-7.904-21.056c-9.443-8.586-6.844-21.47,4.86-24.09
				c13.202-2.954,186.168-11.313,370.497-17.906c187.823-6.715,591.799-9.772,973.312-7.361
				c337.552,2.131,640.162-5.854,812.014-21.43c243.917-22.106,374.181-66.255,403.497-136.749
				C7359.443,2967.625,7327.554,2897.066,7253.81,2836.193z M5700.086,2531.203c-9.629,45.62-8.91,44.456-40.856,66.213
				c-42.281,28.795-80.68,49.777-111.828,61.106l-0.001,0.001c-38.611,14.043-103.304,16.844-115.443,4.997
				c-3.581-3.495,8.502-23.533,25.007-41.47c35.644-38.736,130.036-107.838,183.16-134.085
				c26.649-13.167,26.761-13.187,38.788-6.897c6.633,3.468,15.053,11.706,18.71,18.303
				C5703.474,2509.926,5703.77,2513.749,5700.086,2531.203z M5696.561,1993.761c113.797-132.776,181.325-201.467,221.881-225.707
				c9.967-5.956,19.563-10.882,21.326-10.903c6.812-0.155-1.934,32.487-17.163,64.062
				c-31.659,65.639-94.021,144.748-197.778,250.884c-39.856,40.771-78.191,78.606-85.19,84.081l0-0.001
				c-9.49,7.423-23.514,12.282-55.175,19.116c-23.348,5.04-42.439,8.151-42.455,6.913
				C5542.002,2179.199,5639.208,2060.681,5696.561,1993.761z M5412.792,2341.994c3.123-3.964,26.344-33.133,51.601-64.822
				l45.924-57.615l27.867-4.72c15.327-2.597,31.964-5.59,36.971-6.655l9.103-1.936l-7.641,6.769
				c-4.203,3.723-35.104,29.444-68.668,57.154v0.001C5442.062,2324.566,5403.723,2353.505,5412.792,2341.994z M4744.271,2472.585
				c7.172-25.653,22.717-42.134,37.712-39.986c6.562,0.94,4.187,4.602-16.295,25.122
				C4747.079,2476.364,4742.283,2479.692,4744.271,2472.585z M4733.938,2780.58c4.152,4.052-8.851,19.664-21.558,25.885
				c-11.381,5.574-27.911,8.507-27.954,4.965C4684.387,2808.192,4731.898,2778.588,4733.938,2780.58z M4024.981,2574.423
				c62.119-61.151,125.407-99.98,183.701-112.706c39.6-8.644,51.15-5.737,77.835,19.589c11.978,11.37,21.808,23.106,21.844,26.081
				c0.089,7.36-83.687,85.881-127.646,119.641c-40.572,31.156-99.178,63.609-141.917,78.586v-0.001
				c-38.237,13.4-84.956,17.629-94.275,8.533C3926.833,2696.882,3961.188,2637.223,4024.981,2574.423z M3451.742,2504.387
				c-25.72,54.048-32.005,64.568-38.462,64.385c-7.844-0.223-52.152-9.235-124.845-25.394
				c-76.899-17.092-150.208-32.213-175.093-36.112c-30.322-4.75-78.482-19.264-88.323-26.611
				c-15.232-11.376-2.239-13.971,136.373-27.242c113.035-10.821,321.009-20.61,321.076-15.111
				C3482.478,2439.115,3468.651,2468.854,3451.742,2504.387z M3212.09,2569.542c66.381,10.02,133.856,19.896,149.945,21.946
				c52.915,6.744,50.026,5.438,44.17,19.948c-15.891,39.369-36.733,137.29-36.36,170.832c0.083,7.529-1.082,13.605-2.588,13.509
				c-4.919-0.322-49.049-28.793-133.384-86.062c-45.553-30.932-105.751-70.35-133.774-87.598
				c-28.022-17.245-60.26-39.812-71.638-50.147c-20.343-18.479-20.551-18.868-12.474-23.317
				C3026.607,2542.803,3054.934,2545.82,3212.09,2569.542z M3179.79,2540.302c2.497-1.045,6.604-1.095,9.125-0.111
				c2.522,0.978,0.479,1.835-4.54,1.896S3177.293,2541.348,3179.79,2540.302z M3589.825,2242.711
				c1.885,0.606-5.968,16.822-17.452,36.036c-11.485,19.215-31.612,54.167-44.727,77.674l-23.847,42.74l-179.692,4.498v-0.003
				c-98.831,2.475-204.73,5.785-235.33,7.357c-36.474,1.875-55.654,1.589-55.683-0.828c-0.12-9.879,46.812-29.666,109.61-46.21
				c23.374-6.157,85.586-23.856,138.247-39.331C3388.514,2293.039,3584.581,2241.028,3589.825,2242.711z M1750.547,3323.094
				c-8.685,32.845-29.808,77.585-51.193,108.434c-142.833,206.036-548.424,409.508-909.88,456.455l-0.002,0
				c-58.066,7.541-184.076,11.919-233.544,8.111c-97.914-7.535-190.764-31.174-240.907-61.331
				c-23.371-14.057-46.355-37.001-57.354-57.258c-8.658-15.945-9.89-22.321-10.205-52.811c-0.318-30.794,1.021-38.375,11.956-67.683
				c38.524-103.25,133.539-222.194,287.401-359.787c194.095-173.572,552.964-405.78,903.115-584.368
				c62.527-31.89,76.16-37.618,78.964-33.173c33.124,52.507,84.764,141.508,109.34,188.443
				c32.21,61.514,60.53,122.537,58.048,125.081c-0.771,0.791-25.848,16.763-55.727,35.492
				c-49.538,31.055-104.419,70.032-121.636,86.386c-7.712,7.326-8.8,21.123-2.175,27.589c7.016,6.847,17.438,4.939,29.406-5.382
				c6.083-5.246,29.97-19.325,53.081-31.287c23.112-11.962,58.135-31.155,77.829-42.651c19.695-11.496,37.053-20.917,38.574-20.935
				c3.216-0.039,23.577,68.548,32.935,110.945C1757.909,3195.647,1759.017,3291.064,1750.547,3323.094z M1767.596,2949.954
				c-9.852,6.454-19.224,11.751-20.826,11.77c-1.602,0.02-12.73-20.01-24.729-44.508
				c-30.152-61.566-107.692-194.826-147.342-253.221l-6.46-9.514l39.156-17.764c164.063-74.431,337.736-134.422,504.538-174.281
				c74.474-17.797,106.943-23.892,144.574-27.137c33.937-2.928,134.22,1.06,141.837,5.639c7.164,4.308-10.521,10.045-111.002,36.01
				c-48.038,12.412-109.424,30.364-136.415,39.89c-26.99,9.528-69.535,23.33-94.545,30.671
				c-25.009,7.34-79.828,24.979-121.82,39.199c-41.992,14.22-100.848,34.06-130.791,44.089
				c-61.556,20.619-75.57,29.906-65.972,43.713c7.132,10.258,12.97,9.744,80.922-7.125c30.028-7.455,96.368-23.285,147.425-35.18
				c65.829-15.335,119.793-30.802,185.538-53.179c107.48-36.582,149.802-48.884,192.804-56.042
				c50.232-8.362,94.844-6.01,94.978,5.007c0.112,9.201-145.643,105.014-226.357,148.795
				c-21.941,11.902-57.816,33.797-79.723,48.658c-21.906,14.861-64.302,40.887-94.214,57.837
				c-47.007,26.637-218.107,131.644-271.575,166.67L1767.596,2949.954z M1852.938,2929.222v-0.001
				c-59.659,34.742-63.407,36.8-59.836,32.867c9.344-10.291,285.161-176.86,276.683-167.091
				C2064.962,2800.553,1923.052,2888.393,1852.938,2929.222z M2081.234,2789.724c-3.989,2.245-7.263,3.174-7.275,2.17
				c-0.012-1.002,3.241-3.623,7.231-5.82c3.988-2.245,7.262-3.174,7.274-2.17
				C2088.476,2784.906,2085.223,2787.526,2081.234,2789.724z M2723.565,2967.919c-0.529,68.394-1.739,123.594-2.688,122.67
				c-0.949-0.927-3.781-60.452-6.293-132.281c-4.515-129.079-7.013-155.203-18.432-192.775
				c-6.606-21.732-21.672-41.433-31.594-41.312c-3.651,0.044-13.733,8.169-22.407,18.055c-14.32,16.322-17.914,24.834-39.123,92.655
				c-25.692,82.161-48.402,160.62-57.135,197.39c-12.786,53.84-77.49,265.323-90.809,296.809
				c-10.963,25.916-5.364,2.817,11.703-48.277c25.155-75.307,60.307-199.667,85.754-303.374
				c12.107-49.34,29.106-114.478,37.776-144.749c8.671-30.271,18.429-69.365,21.685-86.874c5.518-29.665,5.502-32.458-0.231-40.979
				c-8.293-12.327-17.068-11.399-34.664,3.67c-17.801,15.243-26.686,26.051-47.25,57.469c-8.611,13.156-31.317,45.499-50.458,71.874
				c-19.141,26.374-51.51,73.071-71.931,103.77c-20.421,30.698-57.194,83.683-81.717,117.743
				c-66.581,92.473-79.688,111.854-181.949,269.043c-70.725,108.711-110.044,164.887-158.665,226.689v0.001
				c-35.552,45.188-67.537,84.551-71.076,87.471c-3.54,2.922,7.378-15.392,24.262-40.695
				c299.823-449.333,619.616-938.31,619.507-947.254c-0.04-3.278-4.243-7.799-9.341-10.048c-8.451-3.726-12.379-1.878-44.467,20.92
				c-19.358,13.754-52.281,38.607-73.162,55.23l-37.964,30.222l30.805-31.27c49.043-49.784,75.423-89.314,75.14-112.598
				c-0.309-25.364-10.451-32.045-38.963-25.67c-23.249,5.199-89.736,36.178-126.658,59.015
				c-15.986,9.887-57.615,34.416-92.508,54.508c-34.894,20.094-77.392,45.204-94.441,55.802
				c-32.131,19.972-50.043,30.216-46.93,26.837c2.913-3.162,89.951-62.21,91.731-62.232c8.14-0.099,149.452-84.921,215.002-129.053
				c45.541-30.661,55.505-41.319,55.288-59.139c-0.121-9.952-2.413-13.676-11.858-19.262
				c-34.577-20.455-137.155-7.017-258.115,33.818c-87.613,29.577-135.634,43.847-174.22,51.771
				c-20.821,4.275-38.453,7.19-39.182,6.48c-1.501-1.465,62.103-21.096,106.018-32.722c16.012-4.239,52.831-16.078,81.82-26.31
				c28.99-10.23,74.819-24.137,101.843-30.9c76.723-19.201,126.866-34.049,142.196-42.107c15.018-7.894,21.59-22.128,15.016-32.522
				c-6.489-10.261-37.549-17.783-74.373-18.02l-34.684-0.217l49.622-4.84c53.815-5.247,66.873-10.226,70.871-27.02
				c2.871-12.056-4.93-26.295-18.961-34.613c-21.491-12.739-201.17-68.988-278.634-87.225
				c-32.627-7.682-94.178-27.526-86.982-28.035c10.696-0.767,94.385,18.172,143.622,32.499
				c29.218,8.503,62.795,17.253,74.618,19.444c11.823,2.19,30.558,6.98,41.635,10.64c24.064,7.953,109.386,23.918,126.702,23.708
				c14.486-0.176,31.347-12.451,31.222-22.73c-0.154-12.637-10.4-27.209-34.239-48.69c-24.408-21.993-23.297-21.561,27.618,10.752
				c26.763,16.983,34.151,20.052,45.623,18.966c12.277-1.167,13.786-2.445,14.638-12.391c1.297-15.134-6.87-25.291-95.837-119.181
				c-63.078-66.569-69.167-73.869-37.681-45.175c87.033,79.315,141.613,118.751,163.976,118.479
				c13.313-0.162,24.408-6.306,24.321-13.47c-0.173-14.21-22.034-64.996-63.143-146.687
				c-44.885-89.195-53.411-104.64-91.087-164.999c-25.233-40.423-50.151-84.591-45.005-79.768
				c2.115,1.981,47.001,72.757,99.745,157.277c143.688,230.251,136.352,219.334,148.181,220.563
				c12.263,1.274,22.553-7.282,25.102-20.876c3.715-19.812-30.206-200.071-44.448-236.202c-1.947-4.94-3.444-10.928-3.326-13.308
				c0.359-7.263,14.111,31.85,39.383,112.017c35.807,113.584,43.073,129.075,60.448,128.864c6.655-0.081,9.138-2.979,11.852-13.833
				c2.106-8.425,2.156-84.248,0.127-196.225c-2.184-120.528-2.091-167.014,0.271-136.903c1.967,25.074,6.657,86.622,10.421,136.773
				c7.423,98.907,15.707,160.004,24.43,180.187c11.235,25.996,27.843,34.958,46.122,24.886c10.644-5.863,23.246-37.64,54.388-137.14
				c15.124-48.323,28.107-86.106,28.851-83.962c0.743,2.145-8.706,48.218-20.999,102.385
				c-26.932,118.675-28.657,130.279-20.541,138.2c3.283,3.203,8.189,5.797,10.903,5.764c14.174-0.172,42.91-39.985,122.287-169.418
				c37.671-61.428,50.079-78.913,28.743-40.507c-7.3,13.141-25.311,49.501-40.024,80.802
				c-45.759,97.346-61.588,145.533-53.472,162.786c5.675,12.063,14.534,14.447,29.428,7.916
				c11.949-5.238,17.226-9.423,75.854-60.148c16.581-14.345,48.849-41.701,71.708-60.791l41.561-34.708l-21.788,23.678
				c-11.983,13.022-31.341,36.034-43.016,51.138c-11.675,15.103-34.341,41.663-50.368,59.023
				c-47.808,51.781-61.577,77.59-41.261,77.343c14.031-0.171,91.828-34.717,223.181-99.103
				c27.764-13.609,51.041-24.195,51.724-23.531c0.684,0.667-22.002,14.35-50.412,30.404c-28.41,16.056-63.06,36.997-77,46.538
				c-13.939,9.539-39.033,25.609-55.764,35.709c-38.137,23.021-65.52,47.611-65.385,58.719c0.055,4.521,3.41,11.144,7.456,14.717
				c6.305,5.568,11.656,6.139,37.468,3.997c26.291-2.183,96.825-13.68,164.334-26.79c35.633-6.919,26.998-1.621-18.321,11.244
				c-87.748,24.909-98.102,28.344-126.501,41.966c-42.942,20.6-54.78,35.04-36.872,44.982c6.375,3.543,39.637,4.108,145.144,2.46
				c100.551-1.565,126.229-1.183,96.761,1.444c-22.062,1.966-67.177,7.119-100.254,11.452c-33.077,4.332-72.448,8.961-87.491,10.287
				c-29.144,2.569-64.341,11.157-70.16,17.12c-6.567,6.73,1.182,22.194,15.542,31.017c16.331,10.034,59.464,22.969,113.14,33.931
				c20.645,4.217,36.89,8.333,36.098,9.141c-0.792,0.812-25.066-1.824-53.944-5.859c-28.877-4.034-64.27-7.397-78.65-7.473
				c-22.985-0.122-27.275,0.946-35.487,8.826c-14.951,14.348-12.331,26.069,10.275,45.969c10.656,9.379,28.092,22.71,38.747,29.625
				c10.656,6.914,18.718,13.246,17.916,14.066c-0.802,0.822-21.555-5.746-46.117-14.595c-49.412-17.803-62.627-19.344-73.177-8.534
				c-27.062,27.729-6.244,60.321,111.033,173.822c69.136,66.91,74.456,72.785,39.369,43.482
				c-22.313-18.636-54.693-46.979-71.954-62.984c-65.732-60.948-106.104-90.962-126.451-94.011
				c-29.164-4.369-24.318,18.118,20.815,96.592c16.786,29.187,49.256,81.587,72.156,116.445c22.9,34.86,47.199,73.169,53.999,85.134
				c6.8,11.965,16.62,29.094,21.824,38.067c17.53,30.224,2.108,9.493-40.372-54.27c-23.221-34.856-53.828-79.661-68.016-99.567
				s-39.987-56.555-57.331-81.442c-48.167-69.118-67.923-86.782-82.222-73.523c-14.589,13.53-13.067,35.997,11.966,176.596
				c19.602,110.102,16.58,117.677-7.318,18.342c-29.411-122.246-40.7-149.182-62.416-148.918
				c-16.51,0.201-21.938,4.133-28.902,20.94C2727.992,2778.331,2724.641,2828.8,2723.565,2967.919z M3550.549,3301.2
				c-175.232,30.808-531.471,116.276-729.985,175.135l0.001-0.001c-38.549,11.43-71.702,20.802-73.673,20.826
				c-4.399,0.053-4.515-11.15-1.099-105.857c1.486-41.18,1.357-191.495-0.273-334.033c-2.961-258.037-2.204-282.504,9.307-300.625
				c7.767-12.228,13.526-5.947,25.27,27.558c8.547,24.385,47.066,187.402,65.529,277.326c5.85,28.487,34.437,127.154,43.379,149.708
				c4.873,12.293,7.807,13.845,18.371,9.709c6.916-2.708,8.197-5.301,6.598-13.342c-1.091-5.489-4.666-23.092-7.943-39.114
				c-9.702-47.433-25.708-145.757-32.323-198.568c-5.724-45.692-12.782-85.857-32.968-187.609
				c-9.293-46.843-11.047-85.656-3.874-85.744c6.879-0.083,24.011,23.354,92.573,126.647
				c90.961,137.041,140.224,213.854,192.824,300.662c72.885,120.285,83.418,137.384,103.793,168.494
				c10.437,15.936,22.286,34.273,26.333,40.75c8.453,13.531,19.877,15.314,25.747,4.018c3.345-6.438,0.592-13.156-18.24-44.5
				c-12.199-20.304-42.717-76.094-67.818-123.978c-73.01-139.277-122.701-224.597-175.232-300.875
				c-57.75-83.855-119.133-182.645-119.245-191.914c-0.061-5.031,10.982-1.017,25.862,9.4c19.463,13.624,34.484,26.5,95.722,82.052
				c25.378,23.021,55.265,49.872,66.416,59.665c127.269,111.795,352.461,325.283,450.929,427.492l40.519,42.059L3550.549,3301.2z
				 M2852.396,2980.145c-1.199,1.228-2.087-0.917-1.976-4.768c0.124-4.255,0.978-5.13,2.179-2.232l0,0.001
				C2853.685,2975.767,2853.594,2978.917,2852.396,2980.145z M4738.961,3093.064c-18.749,26.835-36.514,51.94-39.479,55.787
				c-4.775,6.195-15.18,7.745-91.102,13.573c-208.362,15.996-455.611,42.694-629.075,67.931
				c-81.479,11.853-194.229,29.546-265.505,41.661l0.005,0.001c-43.902,7.464-81.612,13.584-83.8,13.611
				c-2.188,0.022-55.521-50.712-118.52-112.744c-62.998-62.033-135.583-131.377-161.298-154.098
				c-91.326-80.693-310.921-286.428-338.193-316.846c-39.823-44.417-57.804-77.778-45.969-85.293
				c4.342-2.757,97.185,29.539,128.277,44.622c12.983,6.298,53.529,30.697,90.101,54.219
				c59.17,38.058,149.415,93.639,180.842,111.376c6.28,3.544,13.361,11.715,15.814,18.25c8.308,22.129,25.174,40.463,46.554,50.603
				c19.484,9.241,22.549,9.622,59.679,7.438c28.555-1.681,47.209-5.025,68.971-12.364c70.777-23.868,162.405-73.723,258.504-140.651
				l52.43-36.514l5.02,16.468c6.902,22.642,30.789,45.451,54.466,52.008c80.725,22.353,219.737-37.986,339.657-147.433
				c16.29-14.868,33.873-30.58,39.074-34.917l9.457-7.887l-0.722,38.812c-0.684,36.779-0.162,39.849,9.965,58.633
				c8.749,16.229,14.327,21.691,30.766,30.123c19.4,9.951,21.373,10.218,58.381,7.874c75.607-4.79,149.848-38.823,244.072-111.891
				c31.58-24.488,27.35-26.632,35.97,18.242c2.482,12.921,11.098,41.488,19.146,63.478c8.047,21.989,14.283,40.218,13.854,40.497
				c-0.427,0.284-16.617,10.963-35.977,23.732c-43.942,28.983-57.082,43.521-56.846,62.894c0.252,20.769,12.57,29.191,42.163,28.831
				c61.06-0.743,100.038-31.918,99.643-79.701l-0.187-21.902l49.782-28.576c61.02-35.026,284.245-153.729,333.111-177.136
				c23.131-11.085,33.687-14.73,30.028-10.382c-3.103,3.688-39.103,49.312-80,101.389
				c-40.896,52.077-93.333,116.851-116.526,143.942c-23.192,27.091-64.179,74.921-91.083,106.288
				C4838.838,2958.8,4782.771,3030.357,4738.961,3093.064z"/>
		</g>
		<g>
			<path d="M2968.08,3034.292c-13.256,2.117-10.319,13.198,11.603,43.772c11.758,16.4,48.216,72.934,81.018,125.631
				c32.802,52.698,63.787,101.098,68.856,107.556c7.711,9.824,10.364,11.102,16.254,7.831c3.872-2.151,7.019-5.21,6.994-6.798
				c-0.085-5.426-121.969-201.123-149.605-240.208C2981.36,3041.19,2974.062,3033.344,2968.08,3034.292z"/>
		</g>
	</g>
	<g>
		<path d="M4975.332,3335.464l21.107-0.779l5.478,147.999l72.391-2.679l0.661,17.864l-93.497,3.46L4975.332,3335.464z"/>
		<path d="M5149.721,3329.531l21.112-0.605l4.768,165.905l-21.113,0.606L5149.721,3329.531z"/>
		<path d="M5267.819,3326.42l95.696-1.947l0.363,17.873l-74.58,1.517l1.139,55.959l63.24-1.286l0.364,17.873l-63.241,1.286
			l1.51,74.235l-21.115,0.429L5267.819,3326.42z"/>
		<path d="M5444.619,3323.314l95.655-0.925l0.173,17.874l-74.536,0.722l0.502,52.001l62.877-0.608l0.173,17.875l-62.877,0.607
			l0.583,60.336l77.065-0.744l0.172,17.875l-98.186,0.947L5444.619,3323.314z"/>
		<path d="M5721.156,3403.563c-1.812-53.5,28.605-87.185,70.692-88.609c20.138-0.683,36.246,8.573,46.315,18.912l-11.1,14.136
			c-9.042-9.017-20.22-14.978-34.215-14.504c-31.347,1.061-51.312,27.445-49.911,68.77c1.412,41.694,22.2,67.152,53.653,66.087
			c15.831-0.536,27.624-7.834,37.817-19.929l12.014,12.849c-12.587,15.659-28.531,24.938-50.081,25.666
			C5755.027,3488.34,5722.981,3457.434,5721.156,3403.563z"/>
		<path d="M5909.876,3397.346c-0.275-53.156,28.809-85.571,70.491-85.789c41.683-0.216,71.104,31.988,71.378,85.053
			c0.277,53.156-28.803,86.77-70.485,86.985C5939.578,3483.812,5910.151,3450.502,5909.876,3397.346z M6029.935,3396.723
			c-0.216-41.346-19.837-66.752-49.471-66.599s-48.99,25.762-48.775,67.107c0.214,41.348,19.843,67.951,49.476,67.797
			C6010.798,3464.873,6030.148,3438.069,6029.935,3396.723z"/>
		<path d="M6171.241,3315.249l23.83,0.269l54.267,166.598l-22.369-0.253l-27.894-93.019c-5.754-18.622-10.874-36.901-15.982-56.114
			l-1.011-0.012c-5.355,19.189-10.885,37.254-17.058,55.741l-30.307,92.362l-21.492-0.243L6171.241,3315.249z M6143.502,3413.503
			l76.417,0.862l-0.19,16.852l-76.417-0.863L6143.502,3413.503z"/>
		<path d="M6312.491,3400.361c1.078-53.52,33.271-85.513,75.374-84.662c20.145,0.404,35.728,10.517,45.227,21.385l-11.848,13.516
			c-8.542-9.492-19.381-16.049-33.382-16.331c-31.359-0.632-52.719,24.636-53.553,65.975c-0.841,41.711,18.544,68.253,50.008,68.888
			c15.837,0.319,28.007-6.331,38.838-17.857l11.303,13.479c-13.414,14.957-29.836,23.36-51.394,22.925
			C6341.734,3486.844,6311.403,3454.252,6312.491,3400.361z"/>
		<path d="M6520.192,3321.518l21.109,0.675l-2.22,69.471l77.147,2.467l2.22-69.473l21.108,0.675l-5.301,165.885l-21.109-0.675
			l2.493-77.988l-77.147-2.467l-2.493,77.989l-21.109-0.675L6520.192,3321.518z"/>
		<path d="M6737.46,3329.796l21.098,1.011l-7.938,165.785l-21.098-1.009L6737.46,3329.796z"/>
		<path d="M6855.196,3335.686l21.781,1.181l54.329,107.444l16.028,35.285l1.01,0.055c-0.155-16.775-0.762-35.546,0.179-52.875
			l4.653-85.775l20.027,1.087l-8.991,165.732l-21.781-1.183l-54.324-107.538l-16.033-35.191l-1.011-0.054
			c0.153,16.829,0.814,34.589-0.125,51.918l-4.706,86.731l-20.028-1.086L6855.196,3335.686z"/>
		<path d="M7054.671,3429.898c2.815-53.457,36.667-84.355,80.609-82.041c22.966,1.209,37.541,12.427,46.714,22.958l-12.278,13.126
			c-7.944-9.11-18.212-16.636-34.855-17.513c-33.396-1.759-56.203,22.77-58.377,64.06c-2.195,41.662,16.132,68.811,51.491,70.673
			c11.888,0.626,23.511-2.335,30.376-8.16l2.274-43.157l-35.097-1.85l0.921-17.479l54.329,2.861l-3.67,69.669
			c-11.244,10.55-29.827,17.727-52.103,16.554C7081.278,3517.295,7051.835,3483.727,7054.671,3429.898z"/>
	</g>
</g>
</svg>
